<svg xmlns="http://www.w3.org/2000/svg" viewBox="0 0 383.49 93.54"><defs><style>.cls-1,.cls-2{fill:#fff;}.cls-2{font-size:59px;font-family:Ubuntu-Medium, Ubuntu;}</style></defs><title>logo</title><g id="Layer_3" data-name="Layer 3"><path class="cls-1" d="M142.21,118.39l-32-19.48a7.58,7.58,0,0,0-7.9,0l-32,19.48a7.81,7.81,0,0,0-3.73,6.69v39a7.81,7.81,0,0,0,3.73,6.68l32,19.49a7.58,7.58,0,0,0,7.9,0l32-19.49a7.83,7.83,0,0,0,3.73-6.68v-39A7.84,7.84,0,0,0,142.21,118.39Zm-18.09,38.78a33.79,33.79,0,0,1-.9,8,16.17,16.17,0,0,1-3.18,6.49,15.3,15.3,0,0,1-6.11,4.39,25.09,25.09,0,0,1-9.59,1.59,28,28,0,0,1-5.37-.48,27.56,27.56,0,0,1-4.43-1.2,24.37,24.37,0,0,1-3.44-1.55,12.51,12.51,0,0,1-2.32-1.59l3.27-6.62a34.22,34.22,0,0,0,4.68,2.71,16.3,16.3,0,0,0,7.19,1.42q6.18,0,9-3.14t2.84-10.8V116.75h8.34Z" transform="translate(-66.57 -97.8)"/></g><g id="Layer_1" data-name="Layer 1"><text class="cls-2" transform="translate(106.37 68.22)">Jared Hall</text></g></svg>